<?xml version="1.0" standalone="no"?>
<!DOCTYPE svg PUBLIC "-//W3C//DTD SVG 20010904//EN"
 "http://www.w3.org/TR/2001/REC-SVG-20010904/DTD/svg10.dtd">
<svg version="1.0" xmlns="http://www.w3.org/2000/svg"
 width="512.000000pt" height="512.000000pt" viewBox="0 0 512.000000 512.000000"
 preserveAspectRatio="xMidYMid meet">

<g transform="translate(0.000000,512.000000) scale(0.100000,-0.100000)"
fill="#000000" stroke="none">
<path d="M2985 5015 c-16 -15 -25 -36 -25 -55 0 -51 38 -80 105 -80 l55 0 0
-113 0 -113 -80 -199 -80 -199 0 -448 0 -448 -200 0 -200 0 0 208 0 207 -80
240 -80 240 0 112 0 113 55 0 c46 0 60 4 80 25 33 32 33 78 0 110 l-24 25
-1151 0 -1151 0 -24 -25 c-33 -32 -33 -78 0 -110 20 -21 34 -25 80 -25 l55 0
0 -113 0 -112 -80 -240 -80 -240 0 -1220 0 -1220 71 -206 c76 -223 99 -262
172 -302 l42 -22 738 -3 737 -2 0 -170 0 -170 69 -138 c76 -152 118 -202 190
-227 67 -23 1175 -23 1242 0 72 25 114 75 190 227 l69 138 0 170 0 169 498 3
c492 3 497 3 539 25 73 40 96 79 172 302 l71 206 0 1460 0 1461 -80 199 -80
199 0 113 0 113 55 0 c46 0 60 4 80 25 33 32 33 78 0 110 l-24 25 -951 0 -951
0 -24 -25z m1655 -215 l0 -80 -680 0 -680 0 0 80 0 80 680 0 680 0 0 -80z m51
-307 c15 -38 36 -92 48 -120 l21 -53 -799 0 -799 0 47 120 46 120 705 0 705 0
26 -67z m-2451 -93 l0 -80 -880 0 -880 0 0 80 0 80 880 0 880 0 0 -80z m76
-402 l52 -158 -1008 0 -1009 0 50 148 c27 81 51 153 54 160 3 10 190 12 906
10 l902 -3 53 -157z m2484 -1198 l0 -1360 -560 0 -560 0 0 728 0 727 -59 150
-59 150 41 6 c73 11 102 85 52 134 l-24 25 -256 0 -255 0 0 400 0 400 840 0
840 0 0 -1360z m-1389 333 c15 -38 36 -92 48 -120 l21 -53 -679 0 -679 0 35
88 c19 48 41 102 48 120 l14 32 583 0 583 0 26 -67z m-1491 -452 l0 -199 -27
-6 c-16 -3 -365 -53 -778 -111 -412 -58 -760 -107 -772 -110 l-23 -5 0 200 c0
110 1 200 3 201 4 1 1572 227 1585 228 9 1 12 -45 12 -198z m1600 -1001 l0
-1120 -720 0 -720 0 0 1120 0 1120 720 0 720 0 0 -1120z m-1600 -560 l0 -160
-710 0 c-512 0 -716 3 -734 11 -28 13 -39 37 -90 202 l-34 107 784 0 784 0 0
-160z m2803 23 c-31 -95 -53 -145 -70 -160 l-24 -23 -475 0 -474 0 0 160 0
160 544 0 545 0 -46 -137z m-1288 -813 c-19 -38 -44 -74 -54 -80 -27 -14
-1135 -14 -1162 0 -10 6 -35 42 -54 80 l-35 70 670 0 670 0 -35 -70z"/>
<path d="M2661 2225 c-72 -20 -175 -76 -233 -125 -57 -49 -128 -154 -158 -235
-28 -75 -37 -202 -20 -287 52 -268 281 -457 554 -458 303 -1 557 257 556 564
0 126 -54 268 -140 368 -52 61 -158 130 -240 158 -85 29 -241 37 -319 15z
m303 -183 c91 -42 149 -100 194 -190 35 -72 37 -81 37 -172 0 -91 -2 -100 -37
-172 -45 -91 -103 -147 -196 -191 -61 -29 -76 -32 -162 -32 -86 0 -101 3 -162
32 -93 44 -151 100 -196 191 -35 72 -37 81 -37 171 0 87 3 102 32 163 40 85
97 147 172 186 78 42 122 52 213 48 61 -3 92 -11 142 -34z"/>
</g>
</svg>
