<?xml version="1.0" standalone="no"?>
<!DOCTYPE svg PUBLIC "-//W3C//DTD SVG 20010904//EN"
 "http://www.w3.org/TR/2001/REC-SVG-20010904/DTD/svg10.dtd">
<svg version="1.0" xmlns="http://www.w3.org/2000/svg"
 width="512.000000pt" height="512.000000pt" viewBox="0 0 512.000000 512.000000"
 preserveAspectRatio="xMidYMid meet">

<g transform="translate(0.000000,512.000000) scale(0.100000,-0.100000)"
fill="#000000" stroke="none">
<path d="M975 5026 c-37 -17 -70 -52 -84 -89 -16 -42 -14 -241 3 -280 17 -43
68 -85 111 -93 l35 -6 0 -99 0 -98 -77 -59 c-97 -73 -154 -135 -187 -201 -52
-101 -56 -139 -56 -492 l0 -327 -109 -4 c-118 -3 -141 -12 -185 -72 -18 -23
-22 -45 -24 -144 -2 -67 1 -132 7 -153 14 -46 69 -96 116 -105 l35 -6 0 -959
0 -958 -189 -3 c-207 -3 -216 -6 -265 -72 -20 -26 -21 -40 -21 -326 0 -286 1
-300 21 -326 11 -15 33 -37 48 -48 27 -21 35 -21 806 -21 771 0 779 0 806 21
15 11 37 33 48 48 20 26 21 43 24 321 l3 293 53 50 c58 55 105 71 155 54 16
-6 73 -43 125 -83 96 -72 96 -72 90 -108 -11 -60 -26 -78 -114 -138 -61 -42
-93 -72 -115 -107 -29 -48 -30 -52 -33 -203 l-4 -153 1406 0 c1332 0 1406 1
1406 18 0 9 -11 82 -25 161 l-24 144 35 40 c95 105 176 263 216 424 33 132 31
350 -4 484 -29 107 -76 216 -131 301 -19 31 -171 218 -336 417 l-301 361 0
130 0 131 38 67 c74 131 109 245 119 388 l6 90 -40 32 c-127 100 -336 158
-610 169 l-153 6 0 -80 0 -80 -52 -12 c-29 -6 -72 -21 -95 -32 l-42 -20 -37
28 -37 28 -372 3 -372 3 -39 40 -38 39 77 77 77 77 237 -33 c131 -18 248 -35
259 -38 20 -4 22 2 33 73 6 42 10 79 8 81 -2 2 -90 16 -196 30 -105 15 -191
30 -191 33 0 3 20 26 45 50 l45 44 238 -33 c130 -18 247 -35 258 -38 20 -4 22
2 33 73 6 42 10 79 8 81 -2 2 -90 16 -196 30 -105 15 -191 30 -191 33 0 3 22
28 49 54 l49 49 369 33 c237 22 383 39 410 50 54 20 116 90 133 149 25 90 -14
201 -88 250 -20 13 -101 49 -179 80 l-142 56 -56 142 c-31 78 -67 159 -80 179
-49 74 -160 113 -250 88 -59 -17 -129 -79 -149 -133 -11 -27 -28 -174 -50
-410 l-33 -368 -49 -50 c-26 -27 -51 -49 -54 -49 -3 0 -18 86 -33 191 -14 106
-28 194 -30 196 -4 3 -148 -15 -153 -20 -1 -1 14 -118 34 -259 l36 -258 -44
-45 c-24 -25 -47 -45 -50 -45 -3 0 -18 86 -33 191 -14 106 -29 194 -31 196 -4
4 -147 -15 -152 -20 -1 -1 14 -118 34 -260 l37 -257 -77 -77 -77 -77 -40 37
c-75 68 -112 81 -243 85 l-118 4 0 167 c0 286 -43 381 -242 533 l-78 59 0 98
0 99 35 6 c47 9 102 59 116 105 6 21 9 86 7 153 -3 126 -11 147 -72 192 -26
20 -41 21 -394 23 -291 2 -373 0 -397 -11z m2405 -171 c9 -8 47 -93 85 -188
l69 -173 173 -69 c95 -38 180 -76 188 -85 23 -26 19 -77 -7 -94 -19 -12 -427
-56 -513 -56 -15 0 -1 19 55 75 l75 75 -63 62 -62 63 -75 -75 c-56 -56 -75
-70 -75 -55 0 86 44 494 56 513 17 26 68 30 94 7z m-1860 -412 c0 -153 7 -165
134 -264 152 -118 186 -184 186 -366 l0 -103 -37 19 c-21 10 -57 22 -80 26
l-43 7 0 79 0 79 -320 0 -320 0 0 -229 0 -229 -62 -91 c-100 -147 -98 -151
-98 227 0 425 5 441 186 581 127 99 134 111 134 264 l0 117 160 0 160 0 0
-117z m203 -854 c12 -7 43 -31 68 -54 82 -77 116 -88 269 -95 75 -3 144 -10
155 -17 11 -6 49 -41 85 -77 l64 -66 -627 0 -627 0 26 39 c29 45 57 58 194 91
119 29 160 49 230 115 81 77 114 90 163 64z m2304 -349 c46 -11 111 -33 146
-48 l64 -29 -9 -64 c-11 -83 -32 -148 -75 -231 l-35 -68 -113 0 -113 0 -32 77
c-39 92 -77 239 -86 330 l-7 66 89 -6 c49 -4 126 -16 171 -27z m-747 -200 l0
-80 -1360 0 -1360 0 0 80 0 80 1360 0 1360 0 0 -80z m355 3 c16 -68 47 -170
70 -225 6 -16 0 -18 -64 -18 l-71 0 -55 110 c-30 60 -55 116 -55 124 0 25 100
84 146 86 6 0 19 -35 29 -77z m-227 -278 c31 -64 32 -69 32 -201 l0 -135 -80
-95 -80 -95 0 280 c0 261 1 281 18 281 9 0 28 7 42 14 14 8 27 14 30 15 3 1
20 -28 38 -64z m-288 -341 l0 -376 -118 -142 c-65 -77 -136 -165 -158 -194
l-39 -53 -5 440 c-5 426 -6 440 -26 468 -47 64 -75 73 -214 73 -116 0 -130 -2
-161 -23 -18 -12 -44 -38 -56 -56 l-23 -34 0 -606 0 -606 -80 80 -80 80 0 526
0 526 -23 34 c-12 18 -38 44 -56 56 -31 21 -45 23 -161 23 -116 0 -130 -2
-161 -23 -18 -12 -44 -38 -56 -56 -23 -33 -23 -39 -23 -323 l0 -288 -39 20
c-22 10 -58 22 -80 26 l-41 7 0 262 c0 256 -1 263 -23 296 -12 18 -38 44 -56
56 -31 21 -45 23 -161 23 -116 0 -130 -2 -161 -23 -18 -12 -44 -38 -56 -56
l-23 -34 0 -445 0 -445 -64 -67 c-69 -74 -96 -132 -96 -210 0 -78 27 -136 96
-210 l64 -67 0 -102 0 -101 -160 0 -160 0 0 960 0 960 1200 0 1200 0 0 -376z
m960 136 l0 -80 -240 0 -240 0 0 80 0 80 240 0 240 0 0 -80z m-2720 -343 l0
-262 -80 -80 -80 -80 0 343 0 342 80 0 80 0 0 -263z m640 -159 l0 -423 -80 80
-80 80 0 342 0 343 80 0 80 0 0 -422z m640 -223 c0 -546 -2 -645 -14 -645 -8
0 -39 -13 -69 -29 -40 -21 -58 -26 -66 -18 -8 8 -11 207 -11 674 l0 663 80 0
80 0 0 -645z m1778 128 c164 -197 314 -385 334 -418 163 -270 163 -628 1 -888
l-30 -48 -28 41 c-35 51 -90 83 -175 105 -130 32 -128 31 -159 99 -51 114
-136 175 -252 184 -97 7 -155 -16 -235 -90 -44 -42 -72 -60 -90 -61 -34 0 -43
11 -59 72 -36 139 -138 228 -272 239 -86 7 -140 -11 -247 -81 -50 -33 -104
-64 -120 -68 -46 -13 -101 7 -157 57 -28 25 -67 53 -86 62 -34 16 -35 17 -29
64 16 117 83 277 159 378 23 30 164 202 314 383 l273 327 280 0 280 0 298
-357z m-2447 -529 l397 -396 -29 -46 c-16 -25 -29 -53 -29 -62 0 -32 -13 -29
-69 14 -82 63 -137 88 -206 94 -100 8 -162 -16 -244 -93 l-68 -65 -125 0 -124
0 -211 213 c-145 146 -212 221 -215 240 -12 62 0 77 211 290 l207 207 54 0 54
0 397 -396z m785 -404 c14 -6 50 -31 78 -57 61 -55 114 -80 188 -89 78 -9 148
14 257 86 101 66 125 75 176 66 60 -12 92 -49 117 -134 26 -90 77 -150 144
-170 91 -27 156 -8 238 69 71 65 94 79 133 79 56 0 93 -31 137 -115 51 -97 91
-126 226 -160 51 -13 99 -30 107 -38 13 -12 63 -261 63 -309 0 -17 -59 -18
-1230 -18 l-1230 0 0 46 c0 62 10 77 93 133 80 54 127 101 144 147 7 16 24 90
38 164 14 74 31 147 36 162 7 17 40 46 87 77 111 72 142 82 198 61z m-1531
-130 c18 -19 17 -20 -3 -20 -15 0 -22 6 -22 20 0 11 2 20 3 20 2 0 12 -9 22
-20z m-825 -420 l0 -240 -80 0 -80 0 0 240 0 240 80 0 80 0 0 -240z m330 222
c0 -11 14 -46 30 -79 37 -75 120 -155 197 -191 52 -24 70 -27 163 -27 93 0
111 3 163 27 77 36 160 116 197 191 16 33 30 68 30 79 0 16 9 18 85 18 l85 0
0 -240 0 -240 -560 0 -560 0 0 240 0 240 85 0 c76 0 85 -2 85 -18z m610 13 c0
-32 -64 -102 -120 -131 -48 -25 -152 -25 -200 0 -56 29 -120 99 -120 131 0 3
99 5 220 5 121 0 220 -2 220 -5z"/>
<path d="M4338 1677 l-57 -52 95 -113 c101 -121 132 -173 159 -266 l17 -59 56
7 c83 10 102 16 102 35 0 33 -52 170 -85 225 -35 59 -211 276 -223 276 -4 0
-33 -24 -64 -53z"/>
<path d="M4559 1048 c0 -2 -8 -34 -18 -71 -10 -37 -15 -70 -11 -72 7 -4 141
-55 145 -55 5 0 32 98 39 143 5 26 3 38 -6 41 -17 6 -148 17 -149 14z"/>
<path d="M1495 1496 c-60 -28 -87 -56 -114 -116 -38 -84 -20 -201 42 -269 36
-39 115 -71 177 -71 62 0 141 32 177 71 84 92 80 265 -8 346 -70 64 -186 81
-274 39z m160 -161 c16 -15 25 -36 25 -55 0 -19 -9 -40 -25 -55 -15 -16 -36
-25 -55 -25 -19 0 -40 9 -55 25 -16 15 -25 36 -25 55 0 19 9 40 25 55 15 16
36 25 55 25 19 0 40 -9 55 -25z"/>
<path d="M3280 720 l0 -80 80 0 80 0 0 80 0 80 -80 0 -80 0 0 -80z"/>
<path d="M2734 624 c-53 -19 -107 -71 -140 -136 -14 -27 -24 -51 -22 -53 9 -8
129 -65 136 -65 5 0 17 18 27 41 27 60 47 69 142 69 l83 0 0 80 0 80 -92 -1
c-54 0 -110 -7 -134 -15z"/>
<path d="M3920 480 l0 -80 80 0 80 0 0 80 0 80 -80 0 -80 0 0 -80z"/>
</g>
</svg>
