<?xml version="1.0" standalone="no"?>
<!DOCTYPE svg PUBLIC "-//W3C//DTD SVG 20010904//EN"
 "http://www.w3.org/TR/2001/REC-SVG-20010904/DTD/svg10.dtd">
<svg version="1.0" xmlns="http://www.w3.org/2000/svg"
 width="512.000000pt" height="512.000000pt" viewBox="0 0 512.000000 512.000000"
 preserveAspectRatio="xMidYMid meet">

<g transform="translate(0.000000,512.000000) scale(0.100000,-0.100000)"
fill="#000000" stroke="none">
<path d="M1305 4935 c-25 -24 -25 -27 -25 -200 l0 -175 -80 0 -80 0 0 -80 0
-80 80 0 80 0 0 -77 0 -78 -58 -24 c-315 -135 -565 -444 -639 -791 -17 -80
-18 -168 -18 -1420 0 -1448 -3 -1370 55 -1491 82 -172 228 -291 416 -339 172
-44 336 -12 510 99 98 62 167 62 267 -1 89 -56 152 -83 234 -102 115 -26 110
-28 115 62 3 42 4 78 4 79 -1 1 -33 8 -72 17 -75 15 -145 46 -204 91 -44 33
-148 65 -210 65 -62 0 -166 -32 -210 -66 -57 -43 -147 -82 -219 -94 -243 -41
-481 133 -520 380 -6 36 -11 161 -11 278 l0 212 720 0 720 0 0 40 0 40 91 0
c83 0 90 -2 83 -18 -5 -9 -10 -69 -12 -132 -3 -113 -3 -116 29 -183 l33 -67
-32 -65 -32 -65 0 -203 c0 -174 3 -208 19 -242 23 -51 98 -118 149 -133 54
-16 894 -17 943 -1 19 6 51 24 71 40 20 16 44 29 53 29 27 0 72 28 97 59 l23
30 57 -50 c32 -28 59 -45 63 -39 14 23 75 10 120 -25 65 -49 108 -58 270 -53
137 4 141 4 203 37 70 38 100 69 140 145 l27 51 0 660 0 660 -35 100 c-48 140
-48 228 0 375 l35 105 0 290 c0 319 -7 372 -67 525 -39 99 -84 173 -217 360
l-111 155 0 203 c0 202 0 203 -25 227 l-24 25 -271 0 -271 0 -24 -25 c-25 -24
-25 -25 -25 -228 l0 -203 -43 -59 c-112 -155 -217 -308 -217 -319 0 -13 117
-89 130 -84 5 2 48 59 96 128 48 69 105 149 126 178 l39 53 18 -23 c122 -157
271 -402 271 -445 0 -10 -23 -13 -90 -13 l-90 0 0 -80 0 -80 115 0 115 0 0
-49 c0 -27 3 -63 6 -80 l6 -31 -121 0 -121 0 0 -80 0 -80 120 0 120 0 0 -80 0
-80 -120 0 -120 0 0 -80 0 -80 104 0 104 0 -24 -82 c-35 -120 -33 -206 10
-349 19 -63 37 -135 40 -161 l6 -48 -120 0 -120 0 0 -80 0 -80 120 0 120 0 0
-80 0 -80 -120 0 -120 0 0 -80 0 -80 120 0 120 0 0 -80 0 -80 -120 0 -120 0 0
-80 0 -80 120 0 120 0 0 -166 c0 -142 -12 -254 -27 -254 -2 0 -18 8 -36 17
-52 27 -152 23 -210 -9 l-47 -27 0 185 0 184 -37 75 -37 75 37 75 c34 70 37
82 37 165 0 83 -3 95 -37 165 l-37 75 37 75 c34 70 37 82 37 165 0 83 -3 95
-37 165 l-37 75 37 75 37 75 0 218 c0 289 6 278 -247 409 l-73 37 0 153 0 153
-39 0 c-37 0 -39 1 -44 40 -9 73 -91 148 -195 180 -82 25 -163 25 -245 0 -70
-22 -161 -85 -172 -120 -6 -18 -15 -20 -96 -20 l-89 0 0 40 0 40 -880 0 -880
0 0 63 c0 89 25 240 53 322 95 278 305 492 582 596 79 30 85 42 85 181 l0 118
240 0 240 0 0 -118 c0 -139 6 -151 85 -181 236 -88 422 -255 530 -474 46 -93
95 -261 95 -324 l0 -34 73 7 c39 3 77 9 83 13 15 9 -9 161 -41 258 -99 295
-315 538 -589 663 l-75 35 -1 78 0 77 80 0 80 0 0 80 0 80 -80 0 -80 0 0 175
c0 173 0 176 -25 200 l-24 25 -351 0 -351 0 -24 -25z m615 -255 l0 -120 -240
0 -240 0 0 120 0 120 240 0 240 0 0 -120z m1150 -1670 c64 -33 63 -68 -4 -102
-101 -52 -287 -4 -259 67 6 18 53 45 98 56 43 11 122 1 165 -21z m-225 -275
c52 -18 169 -19 228 -1 l47 14 0 -65 c0 -35 5 -73 10 -83 6 -11 73 -51 149
-90 101 -51 141 -77 149 -95 8 -17 12 -91 12 -211 0 -177 -1 -187 -25 -234
l-25 -50 -335 0 -335 0 0 -80 0 -80 335 0 335 0 25 -50 c18 -37 25 -65 25
-110 0 -45 -7 -73 -25 -110 l-25 -50 -335 0 -335 0 0 -80 0 -80 335 0 335 0
25 -50 c35 -68 35 -152 0 -220 l-25 -50 -335 0 -335 0 0 -80 0 -80 335 0 335
0 25 -50 c24 -47 25 -58 25 -210 l0 -162 -29 -29 -29 -29 -416 0 c-283 0 -423
4 -439 11 -40 18 -47 49 -47 215 l0 154 40 80 c22 44 40 89 40 100 0 11 -18
56 -40 100 -33 67 -40 89 -40 140 0 51 7 73 40 140 22 44 40 89 40 100 0 11
-18 56 -40 100 -33 67 -40 89 -40 140 0 51 7 73 40 140 22 44 40 89 40 100 0
11 -18 56 -40 100 l-40 80 0 184 c0 120 4 194 12 211 8 18 48 44 149 95 76 39
143 79 149 90 5 10 10 48 10 84 0 36 1 66 3 66 1 0 20 -7 42 -15z"/>
<path d="M2640 2200 l0 -120 80 0 80 0 0 120 0 120 -80 0 -80 0 0 -120z"/>
<path d="M1333 3921 c-44 -22 -84 -44 -88 -51 -4 -6 12 -40 35 -75 l42 -64 76
37 c43 20 79 38 81 40 9 5 -43 152 -54 152 -6 0 -47 -18 -92 -39z"/>
<path d="M1045 3688 c-26 -35 -62 -92 -80 -128 -47 -92 -95 -263 -77 -273 4
-3 41 -8 83 -12 l77 -6 7 47 c14 94 73 220 137 293 l30 34 -53 53 c-29 30 -59
54 -65 54 -7 0 -33 -28 -59 -62z"/>
</g>
</svg>
