<?xml version="1.0" standalone="no"?>
<!DOCTYPE svg PUBLIC "-//W3C//DTD SVG 20010904//EN"
 "http://www.w3.org/TR/2001/REC-SVG-20010904/DTD/svg10.dtd">
<svg version="1.0" xmlns="http://www.w3.org/2000/svg"
 width="512.000000pt" height="512.000000pt" viewBox="0 0 512.000000 512.000000"
 preserveAspectRatio="xMidYMid meet">

<g transform="translate(0.000000,512.000000) scale(0.100000,-0.100000)"
fill="#000000" stroke="none">
<path d="M2380 5110 c-175 -24 -336 -73 -485 -147 -485 -242 -798 -716 -832
-1258 -11 -182 27 -296 131 -400 179 -178 455 -178 631 -1 89 90 135 201 135
330 0 72 33 194 72 269 48 92 165 205 258 251 136 66 276 82 415 46 108 -28
197 -80 281 -165 185 -186 225 -463 102 -698 -42 -81 -164 -203 -245 -245 -75
-39 -197 -72 -269 -72 -222 0 -409 -148 -453 -358 -15 -73 -15 -1001 0 -1074
18 -87 58 -158 123 -223 138 -137 338 -171 514 -88 73 34 170 131 204 203 42
91 48 143 48 434 l0 273 73 28 c505 196 855 614 953 1140 28 148 25 413 -5
555 -66 308 -193 543 -416 765 -221 222 -459 351 -760 415 -114 24 -369 35
-475 20z"/>
<path d="M2455 886 c-83 -20 -146 -56 -211 -120 -177 -178 -177 -455 0 -631
179 -178 455 -178 631 -1 178 179 178 454 1 632 -114 114 -267 158 -421 120z"/>
</g>
</svg>
